<svg width="77" height="111" viewBox="0 0 77 111" fill="none" xmlns="http://www.w3.org/2000/svg">
<path opacity="0.4" d="M0.5 110.85V93.15L45.8 52.95C49.2 49.95 51.6 47.125 53 44.475C54.4 41.825 55.1 39.35 55.1 37.05C55.1 33.75 54.425 30.825 53.075 28.275C51.725 25.675 49.825 23.65 47.375 22.2C44.925 20.7 42.05 19.95 38.75 19.95C35.3 19.95 32.25 20.75 29.6 22.35C27 23.9 24.975 25.975 23.525 28.575C22.075 31.125 21.4 33.9 21.5 36.9H0.5C0.5 29.5 2.125 23.1 5.375 17.7C8.625 12.3 13.15 8.12499 18.95 5.175C24.75 2.225 31.5 0.749998 39.2 0.749998C46.25 0.749998 52.55 2.3 58.1 5.39999C63.7 8.44999 68.1 12.725 71.3 18.225C74.5 23.725 76.1 30.1 76.1 37.35C76.1 42.7 75.35 47.15 73.85 50.7C72.35 54.2 70.125 57.45 67.175 60.45C64.225 63.4 60.6 66.75 56.3 70.5L27.05 96.15L25.4 91.65H76.1V110.85H0.5Z" fill="white"/>
</svg>
