<svg width="74" height="110" viewBox="0 0 74 110" fill="none" xmlns="http://www.w3.org/2000/svg">
<path opacity="0.4" d="M36 109.95C30.6 109.95 25.45 108.875 20.55 106.725C15.65 104.525 11.375 101.45 7.725 97.5C4.125 93.55 1.55 88.9 4.24683e-07 83.55L19.8 78.3C20.85 82.25 22.9 85.325 25.95 87.525C29.05 89.675 32.4 90.75 36 90.75C39.1 90.75 41.925 90 44.475 88.5C47.075 87 49.125 84.975 50.625 82.425C52.175 79.875 52.95 77.05 52.95 73.95C52.95 69.3 51.35 65.325 48.15 62.025C45 58.675 40.95 57 36 57C34.5 57 33.05 57.225 31.65 57.675C30.25 58.075 28.9 58.65 27.6 59.4L18.45 43.35L52.8 14.85L54.3 19.2H4.2V-4.29153e-06H71.7V19.2L45 45L44.85 39.3C51.05 40.25 56.275 42.425 60.525 45.825C64.825 49.175 68.075 53.325 70.275 58.275C72.525 63.175 73.65 68.4 73.65 73.95C73.65 80.75 71.925 86.875 68.475 92.325C65.025 97.725 60.45 102.025 54.75 105.225C49.05 108.375 42.8 109.95 36 109.95Z" fill="white"/>
</svg>
