<svg width="352.673950" height="824.019958" viewBox="0 0 352.674 824.02" fill="none" xmlns="http://www.w3.org/2000/svg" xmlns:xlink="http://www.w3.org/1999/xlink">
	<desc>
			Created with Pixso.
	</desc>
	<defs>
		<filter id="filter_19814_3898_dd" x="0.000000" y="0.000000" width="352.673950" height="824.019958" filterUnits="userSpaceOnUse" color-interpolation-filters="sRGB">
			<feFlood flood-opacity="0" result="BackgroundImageFix"/>
			<feColorMatrix in="SourceAlpha" type="matrix" values="0 0 0 0 0 0 0 0 0 0 0 0 0 0 0 0 0 0 127 0" result="hardAlpha"/>
			<feOffset dx="0" dy="24"/>
			<feGaussianBlur stdDeviation="8"/>
			<feComposite in2="hardAlpha" operator="out" k2="-1" k3="1"/>
			<feColorMatrix type="matrix" values="0 0 0 0 0.21569 0 0 0 0 0.20392 0 0 0 0 0.66275 0 0 0 0.3 0"/>
			<feBlend mode="normal" in2="BackgroundImageFix" result="effect_dropShadow_1"/>
			<feBlend mode="normal" in="SourceGraphic" in2="effect_dropShadow_1" result="shape"/>
		</filter>
	</defs>
	<g filter="url(#filter_19814_3898_dd)">
		<path id="Vector 335" d="M92.84 2.5C66.31 38.89 16.27 123.65 28.4 171.57C43.56 231.46 121.65 246.24 139.84 338.73C158.04 431.22 94.73 499.07 186.09 570.72C277.44 642.36 337.33 677.23 324.45 773.51" stroke="#FFFFFF" stroke-opacity="1.000000" stroke-width="5.000000" stroke-linejoin="round" stroke-linecap="round"/>
	</g>
	<rect id="Rectangle 105" x="0.540161" y="102.509583" rx="20.000000" width="64.000000" height="64.000000" fill="#FFFFFF" fill-opacity="1.000000"/>
	<rect id="Rectangle 106" x="20.540161" y="122.509583" rx="10.000000" width="23.000000" height="23.000000" fill="#676667" fill-opacity="1.000000"/>
	<rect id="Rectangle 105" x="112.540161" y="355.509583" rx="20.000000" width="64.000000" height="64.000000" fill="#FFFFFF" fill-opacity="1.000000"/>
	<rect id="Rectangle 106" x="132.540161" y="375.509583" rx="10.000000" width="23.000000" height="23.000000" fill="#676667" fill-opacity="1.000000"/>
	<rect id="Rectangle 105" x="244.540161" y="609.509583" rx="20.000000" width="64.000000" height="64.000000" fill="#FFFFFF" fill-opacity="1.000000"/>
	<rect id="Rectangle 106" x="264.540161" y="629.509583" rx="10.000000" width="23.000000" height="23.000000" fill="#676667" fill-opacity="1.000000"/>
</svg>
