<svg width="1070.010742" height="459.014404" viewBox="0 0 1070.01 459.014" fill="none" xmlns="http://www.w3.org/2000/svg" xmlns:xlink="http://www.w3.org/1999/xlink">
	<desc>
			Created with Pixso.
	</desc>
	<defs>
		<filter id="filter_19810_261_dd" x="0.000000" y="10.726990" width="1070.010742" height="448.287415" filterUnits="userSpaceOnUse" color-interpolation-filters="sRGB">
			<feFlood flood-opacity="0" result="BackgroundImageFix"/>
			<feColorMatrix in="SourceAlpha" type="matrix" values="0 0 0 0 0 0 0 0 0 0 0 0 0 0 0 0 0 0 127 0" result="hardAlpha"/>
			<feOffset dx="0" dy="24"/>
			<feGaussianBlur stdDeviation="8"/>
			<feComposite in2="hardAlpha" operator="out" k2="-1" k3="1"/>
			<feColorMatrix type="matrix" values="0 0 0 0 0.21569 0 0 0 0 0.20392 0 0 0 0 0.66275 0 0 0 0.3 0"/>
			<feBlend mode="normal" in2="BackgroundImageFix" result="effect_dropShadow_1"/>
			<feBlend mode="normal" in="SourceGraphic" in2="effect_dropShadow_1" result="shape"/>
		</filter>
	</defs>
	<g filter="url(#filter_19810_261_dd)">
		<path id="Vector 335" d="M26.5 321C74.5 356 186.31 422 249.51 406C328.51 386 348.01 283 470.01 259C592.01 235 681.51 318.5 776.01 198C870.51 77.5 916.51 -1.5 1043.51 15.5" stroke="#FFFFFF" stroke-opacity="1.000000" stroke-width="5.000000" stroke-linejoin="round" stroke-linecap="round"/>
	</g>
	<rect id="Rectangle 105" x="69.509583" y="328.000000" rx="20.000000" width="64.000000" height="64.000000" fill="#FFFFFF" fill-opacity="1.000000"/>
	<rect id="Rectangle 106" x="89.509583" y="348.000000" rx="10.000000" width="23.000000" height="23.000000" fill="#676667" fill-opacity="1.000000"/>
	<rect id="Rectangle 105" x="503.509583" y="225.000000" rx="20.000000" width="64.000000" height="64.000000" fill="#FFFFFF" fill-opacity="1.000000"/>
	<rect id="Rectangle 106" x="523.509583" y="245.000000" rx="10.000000" width="23.000000" height="23.000000" fill="#676667" fill-opacity="1.000000"/>
	<rect id="Rectangle 105" x="905.509583" rx="20.000000" width="64.000000" height="64.000000" fill="#FFFFFF" fill-opacity="1.000000"/>
	<rect id="Rectangle 106" x="925.509583" y="20.000000" rx="10.000000" width="23.000000" height="23.000000" fill="#676667" fill-opacity="1.000000"/>
</svg>
