<svg width="95" height="445" viewBox="0 0 95 445" fill="none" xmlns="http://www.w3.org/2000/svg">
<path d="M38.6372 94V16.91H9.12715V0.399996H85.8272V16.91H56.3172V94H38.6372ZM18.2602 211V117.4H79.3602V133.91H35.9402V153.93H71.5602V170.44H35.9402V194.49H79.3602V211H18.2602ZM5.72988 328L34.3299 234.4H60.7199L89.3199 328H71.1199L45.6399 245.45H49.0199L23.9299 328H5.72988ZM22.8899 308.5V291.99H72.2899V308.5H22.8899ZM0.677148 445V351.4H16.5371L47.4771 413.54L78.4172 351.4H94.2772V445H77.7672V389.1L50.5972 445H44.3572L17.1871 389.1V445H0.677148Z" fill="white" fill-opacity="0.16"/>
</svg>
