<svg width="799" height="216" viewBox="0 0 799 216" fill="none" xmlns="http://www.w3.org/2000/svg">
<path d="M68.1254 216V38.1H0.0253908V-8.58307e-06H177.025V38.1H108.925V216H68.1254ZM201.131 216V-8.58307e-06H342.131V38.1H241.931V84.3H324.131V122.4H241.931V177.9H342.131V216H201.131ZM363.084 216L429.084 -8.58307e-06H489.984L555.984 216H513.984L455.184 25.5H462.984L405.084 216H363.084ZM402.684 171V132.9H516.684V171H402.684ZM582.869 216V-8.58307e-06H619.469L690.869 143.4L762.269 -8.58307e-06H798.869V216H760.769V87L698.069 216H683.669L620.969 87V216H582.869Z" fill="white" fill-opacity="0.16"/>
</svg>
